<svg width="123" height="118" viewBox="0 0 123 118" fill="none" xmlns="http://www.w3.org/2000/svg">
<ellipse cx="61.2669" cy="58.8378" rx="61.2669" ry="58.8378" fill="#FE8B03"/>
<path fill-rule="evenodd" clip-rule="evenodd" d="M6.20768 72.0628C6.02775 69.4538 5.45197 63.9659 4.58829 62.8863C3.72462 61.8067 4.22843 59.5575 4.58829 58.5679L4.04848 55.8689C3.77859 54.2495 3.77854 52.3603 5.39798 50.471C5.82978 50.0391 6.1177 47.0523 6.20768 45.6128C6.65749 45.073 7.6111 43.5616 7.82702 41.8342C8.09691 39.675 10.5259 38.0557 11.3357 33.1975C11.3357 32.1179 13.135 30.5885 14.0347 29.9587C15.744 28.0694 19.2167 23.913 19.4326 22.4016C19.6486 20.8901 22.7614 18.8929 24.2908 18.0832C24.5607 16.8237 26.45 14.0887 31.848 13.225C38.5954 12.1454 47.2322 6.20766 48.5817 5.93777C49.9311 5.66787 56.6785 6.47756 60.997 4.58827C64.4517 3.07684 71.613 5.03811 74.7618 6.20766C76.3812 6.29763 80.4296 7.01736 83.6684 9.17654C86.9072 11.3357 91.6754 12.9551 93.6547 13.4949C94.6443 14.9344 97.3792 18.4071 100.402 20.7822C103.425 23.1573 106.16 25.3704 107.15 26.1801C108.499 27.0798 111.198 29.5269 111.198 32.1179C111.198 34.7089 112.817 36.7961 113.627 37.5159C114.347 38.3256 115.948 41.4564 116.596 47.5021C117.244 53.5478 118.305 59.0177 118.755 60.997C119.025 64.0559 119.187 70.7133 117.676 72.8725C116.164 75.0317 115.786 77.3708 115.786 78.2705C112.188 84.748 103.263 98.7288 96.3536 102.831C89.4443 106.934 79.0802 111.018 74.7618 112.548C72.8725 112.997 68.0682 113.951 63.9659 114.167C59.8635 114.383 57.0385 113.897 56.1388 113.627C54.6993 114.167 51.2806 114.761 49.1214 112.817C46.9623 110.874 39.0453 108.409 35.3566 107.42C33.6473 107.06 29.7967 105.746 28.0694 103.371C26.342 100.996 21.5918 97.5232 19.4326 96.0838C17.8132 95.2741 15.2678 92.3257 13.4949 88.5266C11.6056 84.4781 6.52411 76.6511 6.20768 72.0628ZM11.8755 46.6924C10.5259 40.2149 21.8617 22.4016 33.4674 18.623C32.1179 19.7026 30.3906 22.2396 34.2771 23.751C36.0045 23.5351 36.7962 25.6403 36.9761 26.7199L55.3292 53.7097V54.7893L57.4884 53.7097L56.4088 53.1699L41.0246 20.7822C41.7443 18.9828 41.9422 15.6001 36.9761 16.4638C43.7235 10.526 65.1535 5.45195 74.2221 12.1454C72.4227 11.6956 69.3099 12.0375 71.2532 17.0036L63.9659 52.3603L63.4261 52.9001L65.3154 53.4399V52.6302L78.0006 19.1628C79.71 17.9033 82.1571 14.9524 78.2705 13.225C85.2878 11.6056 108.121 27.9075 106.61 35.8965C105.8 34.2771 103.533 32.3338 100.942 37.5159L70.7134 56.9485H69.9037L70.9833 58.8378L71.793 58.0281L104.181 43.4536C106.07 43.8135 110.118 43.2917 109.039 39.4051C113.897 43.9934 118.377 66.9887 111.468 73.6822C111.558 72.6926 111.468 71.4691 111.198 71.1992C111.177 71.1779 111.154 71.1553 111.131 71.1318C110.57 70.5618 109.461 69.4365 106.61 71.1992C100.331 71.0535 92.603 69.421 84.9776 67.8102C80.5357 66.8719 76.1286 65.9409 72.0629 65.3154L71.5231 64.7756L70.9833 66.6649L71.5231 66.395L104.721 77.7307C105.8 79.2601 107.15 80.9695 109.849 77.7307C112.963 73.9928 102.831 100.132 87.717 102.831C88.9765 101.752 90.4159 99.3765 86.0976 98.5129L67.2047 72.0628V70.9832L65.3154 72.3327L66.395 72.8725L80.1598 100.942C79.8899 102.831 80.2678 106.232 83.9384 104.721C79.6199 108.769 58.1361 114.059 49.9312 108.229C51.7305 108.589 54.7354 108.337 52.3603 104.451L58.8379 73.1424L59.3777 72.6026L57.4884 72.3327L57.7583 73.1424L56.9186 75.3016L55.4491 79.0802L53.8747 83.1287L52.0904 87.7169L48.6419 96.5845L46.4225 102.291C44.8031 103.371 42.428 105.854 45.8827 107.15C39.4951 106.34 25.0466 101.374 18.3531 87.9868C19.4327 89.0664 21.9158 90.3619 23.2113 86.9072L26.5951 84.748L32.9397 80.6996L51.5506 68.8241H52.9001L51.8205 66.9348L51.0108 67.7445L20.2424 80.6996C18.3531 80.4297 15.3842 80.9695 16.1939 84.2083C17.2774 88.5425 2.69894 64.7756 10.526 51.0108C10.3461 52.6301 11.4977 55.4371 15.3842 53.7097L50.471 60.4572L51.0108 61.5368L51.5506 59.3776H50.471L17.2735 47.5021C16.2839 45.7927 13.6028 43.2377 11.8755 46.6924Z" fill="white"/>
<path fill-rule="evenodd" clip-rule="evenodd" d="M38.148 95.2472C38.2094 95.2599 38.2686 95.2689 38.3255 95.2741C38.3255 95.1711 38.2783 95.1231 38.148 95.2472Z" fill="white"/>
<path d="M56.4088 69.9036L61.2669 71.523L60.1873 64.7756L56.4088 69.9036Z" fill="white"/>
<path d="M62.0766 64.7756L62.8863 70.9832L67.2047 68.8241L62.0766 64.7756Z" fill="white"/>
<path d="M63.4261 63.696L68.2842 67.4746L69.9037 62.6164L63.4261 63.696Z" fill="white"/>
<path d="M63.4261 61.5368L67.2047 56.9485L69.9037 61.2669L63.4261 61.5368Z" fill="white"/>
<path d="M60.997 54.2495L66.125 55.8689L62.0766 60.4572L60.997 54.2495Z" fill="white"/>
<path d="M54.7893 56.9485L59.1077 54.7893L59.6475 60.4572L54.7893 56.9485Z" fill="white"/>
<path d="M52.0903 62.8863L53.7097 58.298L58.0281 61.8067L52.0903 62.8863Z" fill="white"/>
<path d="M52.3602 64.5057L55.0592 69.0939L58.8379 63.696L52.3602 64.5057Z" fill="white"/>
<path d="M26.5951 84.748L23.2113 86.9072C21.9158 90.3619 19.4327 89.0664 18.3531 87.9868C25.0466 101.374 39.4951 106.34 45.8827 107.15C42.428 105.854 44.8031 103.371 46.4225 102.291L48.6419 96.5845M26.5951 84.748L32.9397 80.6996M26.5951 84.748C27.9984 86.3908 30.2131 88.8353 32.399 90.9557M38.3255 95.2741C39.0752 94.797 40.0159 94.054 40.7546 93.186M38.3255 95.2741C38.3255 95.1711 38.2783 95.1231 38.148 95.2472M38.3255 95.2741C38.2686 95.2689 38.2094 95.2599 38.148 95.2472M41.0245 88.5266C42.6341 90.0021 41.9661 91.7623 40.7546 93.186M41.0245 88.5266L44.6951 83.9384M41.0245 88.5266C40.0301 87.6151 39.0126 86.78 38.0405 85.9821L38.0401 85.9817M32.9397 80.6996L51.5506 68.8241H52.9001L51.8205 66.9348L51.0108 67.7445L20.2424 80.6996C18.3531 80.4297 15.3842 80.9695 16.1939 84.2083C17.2774 88.5425 2.69894 64.7756 10.526 51.0108C10.3461 52.6301 11.4977 55.4371 15.3842 53.7097L50.471 60.4572L51.0108 61.5368L51.5506 59.3776H50.471L17.2735 47.5021C16.2839 45.7927 13.6028 43.2377 11.8755 46.6924C10.5259 40.2149 21.8617 22.4016 33.4674 18.623C32.1179 19.7026 30.3906 22.2396 34.2771 23.751C36.0045 23.5351 36.7962 25.6403 36.9761 26.7199L55.3292 53.7097V54.7893L57.4884 53.7097L56.4088 53.1699L41.0246 20.7822C41.7443 18.9828 41.9422 15.6001 36.9761 16.4638C43.7235 10.526 65.1535 5.45195 74.2221 12.1454C72.4227 11.6956 69.3099 12.0375 71.2532 17.0036L63.9659 52.3603L63.4261 52.9001L65.3154 53.4399V52.6302L78.0006 19.1628C79.71 17.9033 82.1571 14.9524 78.2705 13.225C85.2878 11.6056 108.121 27.9075 106.61 35.8965C105.8 34.2771 103.533 32.3338 100.942 37.5159L70.7134 56.9485H69.9037L70.9833 58.8378L71.793 58.0281L104.181 43.4536C106.07 43.8135 110.118 43.2917 109.039 39.4051C113.897 43.9934 118.377 66.9887 111.468 73.6822C111.558 72.6926 111.468 71.4691 111.198 71.1992C111.177 71.1779 111.154 71.1553 111.131 71.1318C110.57 70.5618 109.461 69.4365 106.61 71.1992C100.331 71.0535 92.603 69.421 84.9776 67.8102C80.5357 66.8719 76.1286 65.9409 72.0629 65.3154L71.5231 64.7756L70.9833 66.6649L71.5231 66.395L104.721 77.7307C105.8 79.2601 107.15 80.9695 109.849 77.7307C112.963 73.9928 102.831 100.132 87.717 102.831C88.9765 101.752 90.4159 99.3765 86.0976 98.5129L67.2047 72.0628V70.9832L65.3154 72.3327L66.395 72.8725L80.1598 100.942C79.8899 102.831 80.2678 106.232 83.9384 104.721C79.62 108.769 58.1361 114.059 49.9312 108.229C51.7305 108.589 54.7354 108.337 52.3603 104.451L58.8379 73.1424L59.3777 72.6026L57.4884 72.3327L57.7583 73.1424L56.9186 75.3016M32.9397 80.6996C33.1554 81.1271 33.4244 81.5412 33.7372 81.947M32.399 90.9557L37.7857 85.7729M32.399 90.9557C34.6532 93.1425 36.8768 94.9846 38.148 95.2472M37.7857 85.7729C37.3214 85.3914 36.869 85.0178 36.4362 84.6477M37.7857 85.7729C37.8701 85.8422 37.9549 85.9118 38.0401 85.9817M37.7857 85.7729L38.0401 85.9817M27.5296 93.3848C30.0486 95.9038 35.4106 100.294 36.7061 97.7032C37.5072 96.101 37.9368 95.4483 38.148 95.2472M48.6419 96.5845L42.6439 94M48.6419 96.5845L52.0904 87.7169M40.7546 93.186L42.6439 94M42.6439 94C43.4938 91.6106 45.8832 87.5486 48.6419 90.4159M53.8747 83.1287C52.0635 83.3446 48.8716 81.4193 47.5021 80.4297L44.6951 83.9384M53.8747 83.1287L55.4491 79.0802M53.8747 83.1287L52.0904 87.7169M50.7408 80.1598C51.2707 78.9902 52.9541 77.1369 55.4491 79.0802M55.4491 79.0802L56.9186 75.3016M36.4362 84.6477L40.4847 80.9695C40.6017 81.0755 40.7093 81.1775 40.81 81.2731L40.8108 81.2739L40.8114 81.2744C41.6391 82.06 42.0105 82.4125 43.4536 80.9695C44.0387 80.3843 44.4378 79.9176 44.7168 79.5912C45.0813 79.165 45.241 78.9783 45.3429 79.0802C45.2776 78.9932 45.2071 78.8969 45.1317 78.794C44.888 78.4613 44.5938 78.0595 44.2633 77.6788M36.4362 84.6477C35.3839 83.7478 34.4476 82.8685 33.7372 81.947M33.7372 81.947C35.6265 80.6315 39.783 77.7307 41.2944 76.6511C42.3612 75.8891 43.428 76.7167 44.2633 77.6788M44.2633 77.6788C44.5883 77.3699 44.8971 77.0751 45.1912 76.7944C50.7564 71.4811 51.0509 71.2 56.9186 75.3016M44.6951 83.9384C46.1706 85.1979 49.7153 87.7169 52.0904 87.7169M6.20768 72.0628C6.02775 69.4538 5.45197 63.9659 4.58829 62.8863C3.72462 61.8067 4.22843 59.5575 4.58829 58.5679L4.04848 55.8689C3.77859 54.2495 3.77854 52.3603 5.39798 50.471C5.82978 50.0391 6.1177 47.0523 6.20768 45.6128C6.65749 45.073 7.6111 43.5616 7.82702 41.8342C8.09691 39.675 10.5259 38.0557 11.3357 33.1975C11.3357 32.1179 13.135 30.5885 14.0347 29.9587C15.744 28.0694 19.2167 23.913 19.4326 22.4016C19.6486 20.8901 22.7614 18.8929 24.2908 18.0832C24.5607 16.8237 26.45 14.0887 31.848 13.225C38.5954 12.1454 47.2322 6.20766 48.5817 5.93777C49.9311 5.66787 56.6785 6.47756 60.997 4.58827C64.4517 3.07684 71.613 5.03811 74.7618 6.20766C76.3812 6.29763 80.4296 7.01736 83.6684 9.17654C86.9072 11.3357 91.6754 12.9551 93.6547 13.4949C94.6443 14.9344 97.3792 18.4071 100.402 20.7822C103.425 23.1573 106.16 25.3704 107.15 26.1801C108.499 27.0798 111.198 29.5269 111.198 32.1179C111.198 34.7089 112.817 36.7961 113.627 37.5159C114.347 38.3256 115.948 41.4564 116.596 47.5021C117.244 53.5478 118.305 59.0178 118.755 60.997C119.025 64.0559 119.187 70.7133 117.676 72.8725C116.164 75.0317 115.786 77.3708 115.786 78.2705C112.188 84.748 103.263 98.7288 96.3536 102.831C89.4443 106.934 79.0802 111.018 74.7618 112.548C72.8725 112.997 68.0682 113.951 63.9659 114.167C59.8635 114.383 57.0385 113.897 56.1388 113.627C54.6993 114.167 51.2806 114.761 49.1214 112.817C46.9623 110.874 39.0453 108.409 35.3566 107.42C33.6473 107.06 29.7967 105.746 28.0694 103.371C26.342 100.996 21.5918 97.5232 19.4326 96.0838C17.8132 95.2741 15.2678 92.3257 13.4949 88.5266C11.6056 84.4782 6.52411 76.6511 6.20768 72.0628ZM52.3602 64.5057L55.0592 69.094L58.8379 63.696L52.3602 64.5057ZM52.0903 62.8863L53.7097 58.298L58.0281 61.8067L52.0903 62.8863ZM54.7893 56.9485L59.1077 54.7893L59.6475 60.4572L54.7893 56.9485ZM60.997 54.2495L66.125 55.8689L62.0766 60.4572L60.997 54.2495ZM63.4261 61.5368L67.2047 56.9485L69.9037 61.2669L63.4261 61.5368ZM63.4261 63.696L68.2842 67.4746L69.9037 62.6164L63.4261 63.696ZM62.0766 64.7756L62.8863 70.9832L67.2047 68.8241L62.0766 64.7756ZM56.4088 69.9036L61.2669 71.523L60.1873 64.7756L56.4088 69.9036Z" stroke="white" stroke-linecap="round"/>
<path d="M53.1504 103.215C55.3078 103.332 58.6053 103.414 61.6483 103.294M61.6483 103.294C64.7865 103.17 67.654 102.83 68.7208 102.091M61.6483 103.294L61.6106 95.8188M68.7208 102.091C68.7724 102.055 68.8198 102.019 68.8627 101.981M68.7208 102.091C68.7208 102.383 68.8971 103.144 69.5048 104.829C70.4874 107.554 63.6102 108.409 60.0488 108.495M68.7208 102.091C68.7209 101.911 68.7882 101.91 68.8627 101.981M68.8627 101.981C69.0344 101.109 69.1452 99.9154 69.0261 98.7818M65.8384 95.3729C64.3745 95.4722 62.9571 95.6537 61.6106 95.8188M65.8384 95.3729C68.0169 95.225 68.8308 96.9227 69.0261 98.7818M65.8384 95.3729L65.0477 89.5505M61.6106 95.8188C61.0142 95.8919 60.4316 95.9618 59.8651 96.0199M69.0261 98.7818L70.9186 97.9753M76.9268 95.4146L70.9186 97.9753M70.9186 97.9753C69.7746 95.7119 68.4812 91.1802 72.4601 91.1602M70.7925 82.3451C69.6996 83.8055 66.1041 84.7889 64.443 85.098L65.0477 89.5505M66.4813 82.5667C65.9999 81.3764 65.819 78.8792 68.9469 78.4128M59.8651 96.0199L59.994 90.5516C61.4464 90.4441 62.0973 90.6913 62.0416 88.4018C61.9952 86.4939 61.7222 85.7369 61.9766 85.7308C61.5193 85.6767 60.8767 85.5764 60.2173 85.546M59.8651 96.0199C58.4878 96.1612 57.2053 96.2328 56.0481 96.1116M56.0481 96.1116C55.5385 96.0582 55.0532 95.9675 54.5948 95.8288M56.0481 96.1116C56.3986 93.8363 57.1648 88.8259 57.4255 86.9869C57.6095 85.6889 58.9445 85.4872 60.2173 85.546M60.2173 85.546C60.2275 76.61 59.8366 76.2377 67.2243 74.7427M65.0477 89.5505C66.9773 89.3507 71.2462 88.5214 72.8842 86.8016" stroke="white" stroke-linecap="round"/>
<path d="M18.9846 54.4739C18.7957 56.6261 18.6032 59.9191 18.6217 62.9644M18.6217 62.9644C18.6408 66.105 18.8843 68.9822 19.5876 70.0732M18.6217 62.9644L26.094 63.1767M19.5876 70.0732C19.6216 70.1259 19.6566 70.1745 19.6928 70.2187M19.5876 70.0732C19.2961 70.0634 18.5294 70.2142 16.825 70.7651C14.0686 71.6561 13.4444 64.7542 13.4769 61.1919M19.5876 70.0732C19.7675 70.0793 19.7663 70.1465 19.6928 70.2187M19.6928 70.2187C20.5585 70.4194 21.7477 70.5701 22.8846 70.4889M26.3983 67.417C26.3479 65.9506 26.2139 64.5279 26.094 63.1767M26.3983 67.417C26.4732 69.5993 24.7493 70.3559 22.8846 70.4889M26.3983 67.417L32.2439 66.8214M26.094 63.1767C26.0408 62.5781 25.9904 61.9936 25.9513 61.4255M22.8846 70.4889L23.6275 72.4073M25.9858 78.4978L23.6275 72.4073M23.6275 72.4073C25.9278 71.3396 30.5002 70.1985 30.3872 74.1759M39.2531 72.8039C37.83 71.6628 36.9674 68.0365 36.714 66.3659L32.2439 66.8214M39.1758 68.4877C40.3815 68.0464 42.8834 67.9491 43.2449 71.0908M25.9513 61.4255L31.4123 61.7371C31.4712 63.1923 31.2023 63.8346 33.4924 63.8554C35.4007 63.8728 36.1664 63.6253 36.1641 63.8798C36.2334 63.4245 36.3551 62.7856 36.4076 62.1276M25.9513 61.4255C25.8561 60.0441 25.8275 58.7599 25.9873 57.6075M25.9873 57.6075C26.0577 57.0999 26.1646 56.6179 26.3186 56.1644M25.9873 57.6075C28.2496 58.0339 33.2315 58.9672 35.0608 59.2892C36.3519 59.5165 36.5089 60.8575 36.4076 62.1276M36.4076 62.1276C45.3383 62.4366 45.7234 62.0584 46.9705 69.4919M32.2439 66.8214C32.3789 68.7566 33.0651 73.0508 34.7291 74.7455" stroke="white" stroke-linecap="round"/>
<path d="M85.0159 97.5293C86.5994 96.0788 88.9516 93.7948 90.9828 91.5506M90.9828 91.5506C93.0775 89.2361 94.831 86.964 95.0481 85.6923M90.9828 91.5506L85.6492 86.3778M95.0481 85.6923C95.0586 85.6308 95.0655 85.5717 95.0687 85.515M95.0481 85.6923C95.2551 85.8952 95.9183 86.2994 97.5373 87.0401C100.156 88.2379 95.9788 93.7152 93.5631 96.3041M95.0481 85.6923C94.9204 85.567 94.9664 85.5185 95.0687 85.515M95.0687 85.515C94.569 84.7867 93.7987 83.8777 92.911 83.1738M88.2733 83.0659C87.3256 84.1744 86.4686 85.307 85.6492 86.3778M88.2733 83.0659C89.6837 81.4162 91.4551 82.0193 92.911 83.1738M88.2733 83.0659L83.5894 79.5774M85.6492 86.3778C85.2862 86.8521 84.9307 87.3144 84.5779 87.757M92.911 83.1738L93.6547 81.2691M96.0158 75.2221L93.6547 81.2691M93.6547 81.2691C91.2519 80.507 87.1348 78.2731 89.8882 75.4342M82.4695 70.4866C82.7462 72.2784 80.9435 75.5153 80.0075 76.9097L83.5894 79.5774M79.6281 73.7017C78.4481 73.2156 76.5492 71.6071 78.3938 69.0618M84.5779 87.757L80.785 83.8619C81.7189 82.7558 82.3472 82.4657 80.6829 80.9127C79.296 79.6186 78.5687 79.2859 78.7412 79.1009C78.3848 79.3881 77.8665 79.7746 77.3863 80.2215M84.5779 87.757C83.7201 88.8332 82.8789 89.7936 81.988 90.5309M81.988 90.5309C81.5956 90.8556 81.1935 91.137 80.7762 91.366M81.988 90.5309C80.6163 88.6994 77.5918 84.6703 76.4675 83.206C75.6739 82.1725 76.4593 81.0844 77.3863 80.2215M77.3863 80.2215C71.0487 73.9986 70.5125 74.0172 74.5898 67.7321M83.5894 79.5774C84.7898 78.0684 87.1703 74.4606 87.0886 72.1014" stroke="white" stroke-linecap="round"/>
<path d="M104.325 70.4735C104.415 68.3279 104.457 65.0496 104.301 62.0267M104.301 62.0267C104.14 58.9092 103.768 56.0634 103.02 55.0119M104.301 62.0267L96.8721 62.154M103.02 55.0119C102.984 54.9611 102.947 54.9145 102.909 54.8722M103.02 55.0119C103.31 55.0085 104.065 54.824 105.732 54.1999C108.429 53.1905 109.361 60.0153 109.49 63.5539M103.02 55.0119C102.841 55.014 102.84 54.9472 102.909 54.8722M102.909 54.8722C102.041 54.7121 100.853 54.6163 99.7278 54.7483M96.378 57.9575C96.4944 59.4112 96.6918 60.8178 96.8721 62.154M96.378 57.9575C96.2049 55.7941 97.8824 54.9648 99.7278 54.7483M96.378 57.9575L90.6008 58.8134M96.8721 62.154C96.9519 62.7459 97.0284 63.3241 97.0929 63.8864M99.7278 54.7483L98.9034 52.8771M96.2862 46.9365L98.9034 52.8771M98.9034 52.8771C96.6677 54.0414 92.1793 55.3812 92.1115 51.4269M83.3705 53.1903C84.8351 54.259 85.8557 57.8206 86.1829 59.4679L90.6008 58.8134M83.6426 57.4725C82.4653 57.9653 79.9856 58.1751 79.4845 55.0719M97.0929 63.8864L91.6566 63.8241C91.5322 62.3818 91.7701 61.7319 89.4953 61.8148C87.5997 61.8839 86.8506 62.1643 86.8414 61.9115C86.7932 62.3667 86.7013 63.0066 86.6789 63.6623M97.0929 63.8864C97.2499 65.2536 97.3365 66.5274 97.23 67.6789M97.23 67.6789C97.183 68.1861 97.0987 68.6695 96.9663 69.1267M97.23 67.6789C94.9644 67.3579 89.9755 66.6567 88.1446 66.4197C86.8523 66.2524 86.6358 64.928 86.6789 63.6623M86.6789 63.6623C77.7975 63.7596 77.4322 64.1526 75.8576 56.8281M90.6008 58.8134C90.3791 56.8979 89.5035 52.6652 87.7746 51.0579" stroke="white" stroke-linecap="round"/>
<path d="M96.7755 40.7202C95.414 39.0596 93.2623 36.5858 91.1328 34.4346M91.1328 34.4346C88.9366 32.2162 86.764 30.3408 85.5061 30.0543M91.1328 34.4346L85.6755 39.4767M85.5061 30.0543C85.4453 30.0405 85.3866 30.0303 85.3302 30.0241M85.5061 30.0543C85.72 29.8588 86.16 29.2187 86.9883 27.6428C88.3278 25.094 93.568 29.5647 96.0206 32.1187M85.5061 30.0543C85.374 30.175 85.3281 30.1264 85.3302 30.0241M85.3302 30.0241C84.5756 30.4831 83.6258 31.2025 82.8743 32.0502M82.5123 36.675C83.5672 37.682 84.6512 38.5999 85.6755 39.4767M82.5123 36.675C80.9425 35.1764 81.6417 33.4407 82.8743 32.0502M82.5123 36.675L78.7724 41.1607M85.6755 39.4767C86.1292 39.8651 86.5712 40.2455 86.9939 40.622M82.8743 32.0502L81.0132 31.2033M75.1047 28.5143L81.0132 31.2033M81.0132 31.2033C80.1206 33.5606 77.6644 37.5492 74.9806 34.6443M69.6339 41.7807C71.4382 41.6026 74.5714 43.58 75.9124 44.591L78.7724 41.1607M72.6885 44.7941C72.1384 45.9456 70.4282 47.7535 67.9879 45.7722M86.9939 40.622L82.8967 44.1958C81.8436 43.2026 81.5883 42.5593 79.9464 44.136C78.5782 45.4499 78.2061 46.1579 78.0309 45.9755C78.2981 46.3472 78.6556 46.8858 79.0756 47.3898M86.9939 40.622C88.0215 41.5375 88.9343 42.4301 89.6216 43.3601M89.6216 43.3601C89.9244 43.7697 90.1833 44.1865 90.3891 44.6157M89.6216 43.3601C87.7177 44.6293 83.5289 47.4284 82.0052 48.4708C80.9298 49.2066 79.8863 48.3627 79.0756 47.3898M79.0756 47.3898C72.5147 53.3768 72.5039 53.9132 66.4516 49.4976M78.7724 41.1607C77.3315 39.8794 73.8596 37.3048 71.4994 37.257" stroke="white" stroke-linecap="round"/>
<path d="M70.276 19.259C67.9574 19.1555 64.4145 19.1007 61.147 19.2609M61.147 19.2609C57.7773 19.4262 54.7006 19.8201 53.5621 20.6252M61.147 19.2609L61.2636 27.2901M53.5621 20.6252C53.5071 20.6641 53.4566 20.704 53.4108 20.7448M53.5621 20.6252C53.5592 20.3119 53.362 19.496 52.6922 17.6922C51.6089 14.775 58.9875 13.787 62.8122 13.6576M53.5621 20.6252C53.5639 20.8185 53.4917 20.8204 53.4108 20.7448M53.4108 20.7448C53.2354 21.6831 53.1285 22.9664 53.2679 24.1828M56.7268 27.8122C58.2983 27.6905 59.819 27.4812 61.2636 27.2901M56.7268 27.8122C54.3882 27.9932 53.4967 26.1779 53.2679 24.1828M56.7268 27.8122L57.6355 34.0584M61.2636 27.2901C61.9036 27.2055 62.5286 27.1245 63.1365 27.0563M53.2679 24.1828L51.2433 25.0685M44.8155 27.8803L51.2433 25.0685M51.2433 25.0685C52.4952 27.4881 53.9306 32.3428 49.6568 32.4048M51.5379 41.8567C52.697 40.2768 56.5492 39.1839 58.3304 38.8349L57.6355 34.0584M56.1666 41.5748C56.6959 42.8485 56.9157 45.5291 53.5605 46.0619M63.1365 27.0563L63.0538 32.9316C61.4947 33.0618 60.793 32.8029 60.8762 35.2616C60.9455 37.3106 61.2464 38.1209 60.9732 38.1302C61.465 38.1835 62.1563 38.2847 62.8649 38.3107M63.1365 27.0563C64.6146 26.8905 65.9915 26.8005 67.2357 26.9189M67.2357 26.9189C67.7837 26.9711 68.3059 27.0637 68.7997 27.208M67.2357 26.9189C66.8824 29.3666 66.1104 34.7564 65.8491 36.7345C65.6647 38.1306 64.2327 38.3609 62.8649 38.3107M62.8649 38.3107C62.945 47.9097 63.3687 48.3056 55.4482 49.9866M57.6355 34.0584C55.5647 34.2926 50.9877 35.2269 49.2457 37.091" stroke="white" stroke-linecap="round"/>
<path d="M36.3553 25.6368C34.6215 27.1797 32.0442 29.6114 29.8144 32.0051M29.8144 32.0051C27.5147 34.4737 25.5846 36.9018 25.3302 38.2727M29.8144 32.0051L35.4978 37.6778M25.3302 38.2727C25.3179 38.339 25.3095 38.4028 25.3052 38.464M25.3302 38.2727C25.1096 38.0502 24.3992 37.6031 22.6611 36.7775C19.8502 35.4424 24.449 29.5883 27.0997 26.8281M25.3302 38.2727C25.4663 38.41 25.4158 38.4618 25.3052 38.464M25.3052 38.464C25.8338 39.2588 26.6522 40.253 27.6006 41.0275M32.6106 41.2161C33.6519 40.0329 34.5957 38.8223 35.4978 37.6778M32.6106 41.2161C31.0609 42.9769 29.1559 42.2977 27.6006 41.0275M32.6106 41.2161L37.6181 45.0587M35.4978 37.6778C35.8974 37.1709 36.2888 36.6769 36.6769 36.204M27.6006 41.0275L26.7673 43.0743M24.1219 49.5723L26.7673 43.0743M26.7673 43.0743C29.352 43.9351 33.7665 46.4131 30.747 49.4383M38.6872 54.9C38.4159 52.9594 40.4143 49.4895 41.4474 47.9971L37.6181 45.0587M41.8077 51.4697C43.0753 52.0134 45.1023 53.7811 43.0694 56.503M36.6769 36.204L40.7152 40.4722C39.6888 41.6529 39.0053 41.9567 40.7797 43.6608C42.2584 45.0808 43.0392 45.4517 42.8499 45.6488C43.2395 45.3441 43.8056 44.9345 44.3315 44.4589M36.6769 36.204C37.6205 35.0543 38.5446 34.0296 39.5188 33.2467M39.5188 33.2467C39.9479 32.9019 40.3867 32.604 40.8412 32.363M39.5188 33.2467C40.9726 35.2472 44.1784 39.6482 45.3708 41.248C46.2123 42.3772 45.3467 43.5409 44.3315 44.4589M44.3315 44.4589C51.0835 51.2821 51.6633 51.2704 47.1595 57.9991M37.6181 45.0587C36.2974 46.6707 33.669 50.5325 33.7206 53.0833" stroke="white" stroke-linecap="round"/>
</svg>
